<svg xmlns="http://www.w3.org/2000/svg" viewBox="0 0 957.52 478.5"><defs><style>.cls-1,.cls-2,.cls-3{fill:none;stroke:#000;stroke-linecap:round;stroke-miterlimit:10;stroke-width:15px;}.cls-2{stroke-dasharray:5.25 21.01 5.25 21.01;}.cls-3{stroke-dasharray:5.25 21.01 5.25 21.01 5.25 21.01;}</style></defs><g id="Camada_2" data-name="Camada 2"><g id="Camada_1-2" data-name="Camada 1"><path d="M9.59,18.53h94q31.34,0,50.69,16.95t19.35,44.78q0,17-6.88,30.06t-18.06,17.91v1.28q15.35,3.53,24.62,17.11t9.28,33.74q0,28.78-19,47t-50,18.23H9.59Q0,245.6,0,236V28.13Q0,18.53,9.59,18.53Zm44.78,91.79h40.3q11.19,0,18.23-6.72,6.7-6.7,6.71-17.59t-6.87-17.43Q105.86,62,94.67,62H54.37Zm0,40.3v51.49H99.78q12.8,0,20.47-7t7.68-18.87q0-11.5-7.68-18.55t-20.47-7Z"/><path d="M6.22,297.13H61.11q22.23,0,35.8,14.06t13.57,37.08q0,23-13.57,37.08t-35.8,14.07H33.76v31.47c0,3.94-2,5.9-5.9,5.9H6.22c-3.93,0-5.9-2-5.9-5.9V303C.32,299.09,2.29,297.13,6.22,297.13ZM56,367.94q9,0,14.56-5.41t5.51-14.26q0-8.85-5.51-14.26T56,328.6H33.76v39.34Z"/><path d="M214.94,411.22q4.91,0,4.91,5.9v13.77c0,3.94-2,5.9-5.9,5.9H203.13q-15.54,0-21-10.62-9.45,13-30.3,13-15.73,0-24.1-7.47t-8.36-21.44q0-11.42,7.77-18.79t22.13-9.54l22.82-3.54q7.48-1.19,7.48-7.87v-.39q0-8.46-12.39-8.46-10,0-14.37,7.87-2.55,4.92-7.27,3.93l-16.33-3.93q-6.3-1.77-3.94-7.48a39.4,39.4,0,0,1,15.94-19.28q10.82-6.67,26.36-6.68,20.85,0,32.16,9.24T211,371.68v34c0,3.68,1.25,5.51,3.74,5.51Zm-52.13,5.71a15.72,15.72,0,0,0,12.1-5c3.07-3.35,4.62-7.77,4.62-13.28v-2.16l-18.89,2.95q-9.84,1.57-9.83,9.05Q150.81,416.93,162.81,416.93Z"/><path d="M271.59,439.15q-16.14,0-27.84-6.78T228.11,414q-1.77-5.89,4.73-6.88l15.54-2.36a5.21,5.21,0,0,1,3.73.49,12.18,12.18,0,0,1,3.15,3.64q4.13,6.11,15.15,6.1,12.19,0,12.19-7.48,0-4.32-5.11-5.31l-16.72-3.34q-15-3-23.21-10.63a25.4,25.4,0,0,1-8.27-19.47q0-14.36,11.81-23.51t29.7-9.14q13.77,0,23.61,5.5a36.38,36.38,0,0,1,14.75,14.76q2.76,5.51-3.54,7.47l-15.34,4.53c-2.5.78-5-.26-7.48-3.15q-3.74-4.92-11.61-4.92a13.12,13.12,0,0,0-7.57,2,6.13,6.13,0,0,0-2.85,5.31q0,4.92,7.28,6.3l16.72,3.34q14.16,2.76,21.73,10.13t7.58,18.79q0,14.55-11.8,23.8T271.59,439.15Z"/><path d="M365.81,439.15q-16.12,0-27.83-6.78T322.34,414q-1.77-5.89,4.72-6.88l15.54-2.36a5.23,5.23,0,0,1,3.74.49,12.32,12.32,0,0,1,3.14,3.64q4.14,6.11,15.15,6.1,12.19,0,12.2-7.48,0-4.32-5.12-5.31L355,398.83q-15-3-23.21-10.63a25.39,25.39,0,0,1-8.26-19.47q0-14.36,11.8-23.51t29.7-9.14q13.77,0,23.61,5.5a36.32,36.32,0,0,1,14.75,14.76q2.76,5.51-3.54,7.47l-15.34,4.53c-2.49.78-5-.26-7.48-3.15q-3.74-4.92-11.6-4.92a13.13,13.13,0,0,0-7.58,2,6.13,6.13,0,0,0-2.85,5.31q0,4.92,7.28,6.3L379,377.19q14.16,2.76,21.74,10.13t7.57,18.79q0,14.55-11.8,23.8T365.81,439.15Z"/><path d="M513.74,411.22c3.27,0,4.92,2,4.92,5.9v13.77c0,3.94-2,5.9-5.91,5.9H501.93q-15.54,0-21-10.62-9.45,13-30.3,13-15.73,0-24.09-7.47t-8.36-21.44q0-11.42,7.77-18.79T448,381.91l22.81-3.54q7.48-1.19,7.48-7.87v-.39q0-8.46-12.39-8.46-10,0-14.36,7.87-2.56,4.92-7.28,3.93L428,369.52q-6.3-1.77-3.93-7.48A39.38,39.38,0,0,1,440,342.76q10.81-6.67,26.36-6.68,20.85,0,32.16,9.24t11.31,26.36v34c0,3.68,1.25,5.51,3.74,5.51Zm-52.13,5.71a15.72,15.72,0,0,0,12.1-5q4.62-5,4.62-13.28v-2.16l-18.88,2.95q-9.84,1.57-9.84,9.05Q449.61,416.93,461.61,416.93Z"/><path d="M624.88,338.44c3.93,0,5.9,2,5.9,5.9v82.81q0,23.22-14.85,37.28T576.49,478.5A58.25,58.25,0,0,1,549.64,472a53.13,53.13,0,0,1-20.17-17.51q-3.35-4.92,2.17-8.07l15.73-8.65q4.53-2.56,7.87,2.36Q562.52,451,575.7,451q10.62,0,17.12-6.79t6.49-18v-8.85h-.79q-1.77,6.89-9.44,11.21t-18.49,4.33q-19.87,0-32-13.28t-12.1-35.11q0-21.84,12.1-35.12t32-13.27q10.81,0,18.49,4.32t9.44,11.41h.79l2.55-8.46a6.15,6.15,0,0,1,6.5-4.91Zm-46.42,67.47q9.43,0,15.14-5.9t5.71-15.54q0-9.84-5.71-15.74t-15.14-5.9q-9.26,0-14.86,6T558,384.47q0,9.63,5.6,15.54T578.46,405.91Z"/><path d="M696.87,336.08q21.84,0,35.12,14.16t13.28,37.37v3.55q0,5.89-5.91,5.9h-62q4.13,15.35,21.64,15.34,10.23,0,15.54-4.92,4.32-3.74,8.06-2.16l14,5.9q5.89,2.56,2.95,7.48a45.37,45.37,0,0,1-17.31,14.85,50.9,50.9,0,0,1-23.41,5.6q-23.21,0-37.28-14.16T647.5,387.61q0-23.21,13.57-37.37T696.87,336.08Zm-1,26.75q-15.54,0-18.88,16.52h38.55Q713.4,362.83,695.89,362.83Z"/><path d="M823.36,336.08q15.74,0,25.38,10t9.64,26.55v58.23c0,3.94-2,5.9-5.91,5.9H832.8c-3.93,0-5.9-2-5.9-5.9V383.68q0-8.07-4.52-13.08a15.4,15.4,0,0,0-12-5q-7.68,0-12.3,5t-4.62,13.08v47.21c0,3.94-2,5.9-5.9,5.9H767.89c-3.94,0-5.9-2-5.9-5.9V344.34c0-3.94,2-5.9,5.9-5.9h16.52q5.12,0,6.49,5.11l2.56,9.44h.79q2.36-7.67,10.32-12.29A36.81,36.81,0,0,1,823.36,336.08Z"/><path d="M915,439.15q-16.14,0-27.84-6.78T871.55,414q-1.77-5.89,4.72-6.88l15.54-2.36a5.23,5.23,0,0,1,3.74.49,12.18,12.18,0,0,1,3.15,3.64q4.13,6.11,15.15,6.1,12.2,0,12.19-7.48,0-4.32-5.11-5.31l-16.72-3.34q-15-3-23.22-10.63a25.43,25.43,0,0,1-8.26-19.47q0-14.36,11.81-23.51t29.7-9.14q13.77,0,23.6,5.5a36.35,36.35,0,0,1,14.76,14.76q2.74,5.51-3.54,7.47l-15.35,4.53c-2.49.78-5-.26-7.47-3.15q-3.74-4.92-11.61-4.92a13.12,13.12,0,0,0-7.57,2,6.13,6.13,0,0,0-2.85,5.31q0,4.92,7.28,6.3l16.72,3.34q14.16,2.76,21.73,10.13t7.58,18.79q0,14.55-11.81,23.8T915,439.15Z"/><path d="M905.69,18.43,873.69,226a16,16,0,0,1-22,12.33l-61.3-25.55L765,250.91a9.92,9.92,0,0,1-8.7,5.09,10.39,10.39,0,0,1-10.4-10.4V197.51a15.94,15.94,0,0,1,3.38-9.82L857.89,48,711,180.15l-51.3-21.4a16,16,0,0,1-9.81-14.2,15.55,15.55,0,0,1,8-14.89L882,2.11a16,16,0,0,1,23.73,16.32Z"/><path class="cls-1" d="M717.25,203l-1.89,1.65"/><path class="cls-2" d="M699.33,218.2q-17.21,14.13-33.42,25.46"/><path class="cls-3" d="M657.22,249.56c-51.3,33.89-96.39,46.52-142.58,39.67-73.57-10.91-109.28-121-164.52-144C291.64,121,221.7,227.47,129.49,237.16"/><path class="cls-1" d="M119,237.83c-.83,0-1.66,0-2.5,0"/></g></g></svg>